#!OML:ASF I:\Actors\actors\Patient Classification 2\Patient 1\Session 1\actor1.ASF
:FULLY-SPECIFIED
:DEGREES
1045
root -0.613658 18.577 6.27141 -3.37319 -2.62822 -4.08318
lowerback 6.81016 1.5234 3.70783
upperback -1.69058 2.41932 1.03374
thorax -5.47669 1.08942 -1.27893
lowerneck -9.75269 -2.18075 -0.461984
upperneck 24.3968 -3.20319 0.897118
head 9.28809 -1.44315 0.0406336
rclavicle 1.1455e-014 -1.799e-014
rhumerus -59.1982 -11.8366 -81.5447
rradius 42.3084
rwrist 1.43957
rhand -12.7482 -34.1989
rfingers 7.12502
rthumb 13.3359 -63.7522
lclavicle 1.1455e-014 -1.799e-014
lhumerus -48.5607 5.1084 89.5581
lradius 42.0703
lwrist 5.74969
lhand -12.8121 -18.4465
lfingers 7.12502
lthumb 13.2743 11.1108
rfemur 0 0 0
rtibia 0
rfoot 0 0
rtoes 0
lfemur -0.252758 -2.29636 -11.7963
ltibia 25.0251
lfoot -25.3185 12.3337
ltoes -54.3586
1046
root -0.617962 18.578 6.26475 -3.40476 -2.5769 -4.04232
lowerback 6.86254 1.50983 3.66116
upperback -1.68958 2.39947 1.03102
thorax -5.50804 1.08049 -1.25522
lowerneck -9.82477 -2.18829 -0.579603
upperneck 24.4896 -3.23278 1.05959
head 9.33975 -1.44903 0.111577
rclavicle -9.48576e-015 -1.2921e-014
rhumerus -59.165 -11.7257 -81.6066
rradius 42.2953
rwrist 1.43256
rhand -12.7477 -34.1599
rfingers 7.12502
rthumb 13.3364 -63.7131
lclavicle -9.48576e-015 -1.2921e-014
lhumerus -48.583 5.18003 89.5172
lradius 42.0728
lwrist 5.69494
lhand -12.7761 -18.4641
lfingers 7.12502
lthumb 13.3091 11.0909
rfemur 0 0 0
rtibia 0
rfoot 0 0
rtoes 0
lfemur -0.256087 -2.26857 -11.8149
ltibia 25.0198
lfoot -25.2638 12.2988
ltoes -54.3656
1047
root -0.62303 18.5785 6.25806 -3.43308 -2.54224 -4.05034
lowerback 6.87853 1.49651 3.64491
upperback -1.67724 2.38131 1.04403
thorax -5.50619 1.07245 -1.23092
lowerneck -9.87395 -2.20034 -0.594159
upperneck 24.5579 -3.24552 1.04839
head 9.37325 -1.45668 0.107811
rclavicle -1.09269e-014 2.18663e-015
rhumerus -59.1052 -11.6335 -81.683
rradius 42.269
rwrist 1.4452
rhand -12.7484 -34.1577
rfingers 7.12502
rthumb 13.3357 -63.7109
lclavicle -1.09269e-014 2.18663e-015
lhumerus -48.6045 5.28416 89.451
lradius 42.0857
lwrist 5.60648
lhand -12.6613 -18.4566
lfingers 7.12502
lthumb 13.4196 11.0912
rfemur 0 0 0
rtibia 0
rfoot 0 0
rtoes 0
lfemur -0.262557 -2.224 -11.7741
ltibia 25.0247
lfoot -25.2171 12.2643
ltoes -54.4114
1048
root -0.627245 18.5784 6.25064 -3.45632 -2.49444 -4.12857
lowerback 6.90124 1.49406 3.72734
upperback -1.66784 2.38702 1.05885
thorax -5.50654 1.07285 -1.26279
lowerneck -9.8693 -2.20317 -0.500681
upperneck 24.5449 -3.23181 0.905303
head 9.36328 -1.4572 0.0445092
rclavicle -9.96408e-015 -1.59028e-014
rhumerus -59.0795 -11.6262 -81.7372
rradius 42.2773
rwrist 1.42792
rhand -12.8041 -34.1813
rfingers 7.12502
rthumb 13.2821 -63.7381
lclavicle -9.96408e-015 -1.59028e-014
lhumerus -48.5853 5.29181 89.4162
lradius 42.0609
lwrist 5.60704
lhand -12.5391 -18.4944
lfingers 7.12502
lthumb 13.5375 11.0455
rfemur 0 0 0
rtibia 0
rfoot 0 0
rtoes 0
lfemur -0.27754 -2.20288 -11.6581
ltibia 25.0303
lfoot -25.1682 12.2314
ltoes -54.498
1049
root -0.62984 18.5784 6.24306 -3.47566 -2.43619 -4.14768
lowerback 6.94539 1.49413 3.75195
upperback -1.66367 2.39209 1.07162
thorax -5.5267 1.07435 -1.2652
lowerneck -9.86628 -2.19973 -0.552193
upperneck 24.5218 -3.22733 0.95151
head 9.35632 -1.45486 0.0697741
rclavicle -1.39895e-014 -1.31198e-014
rhumerus -59.061 -11.6462 -81.7141
rradius 42.2912
rwrist 1.45104
rhand -12.7732 -34.2487
rfingers 7.12502
rthumb 13.3118 -63.8035
lclavicle -1.39895e-014 -1.31198e-014
lhumerus -48.5682 5.23887 89.4644
lradius 42.0627
lwrist 5.66195
lhand -12.5026 -18.4903
lfingers 7.12502
lthumb 13.5726 11.0473
rfemur 0 0 0
rtibia 0
rfoot 0 0
rtoes 0
lfemur -0.300834 -2.22456 -11.6224
ltibia 25.0395
lfoot -25.1323 12.1953
ltoes -54.5092
1050
root -0.631717 18.5788 6.23732 -3.49215 -2.4141 -4.11468
lowerback 6.97092 1.49805 3.70786
upperback -1.65563 2.39503 1.08438
thorax -5.53485 1.07741 -1.22832
lowerneck -9.89606 -2.20892 -0.642305
upperneck 24.5604 -3.24592 1.04362
head 9.3791 -1.46127 0.114034
rclavicle -2.49972e-014 7.95139e-015
rhumerus -59.0368 -11.6172 -81.6902
rradius 42.306
rwrist 1.46847
rhand -12.6872 -34.2311
rfingers 7.12502
rthumb 13.3947 -63.7805
lclavicle -2.49972e-014 7.95139e-015
lhumerus -48.5668 5.18791 89.5468
lradius 42.1027
lwrist 5.75411
lhand -12.5649 -18.4498
lfingers 7.12502
lthumb 13.5126 11.0917
rfemur 0 0 0
rtibia 0
rfoot 0 0
rtoes 0
lfemur -0.308874 -2.21237 -11.6487
ltibia 25.0448
lfoot -25.1162 12.1732
ltoes -54.5163
1051
root -0.632985 18.579 6.23264 -3.51284 -2.40211 -4.10532
lowerback 6.97707 1.49303 3.70373
upperback -1.65279 2.38798 1.08094
thorax -5.5357 1.07402 -1.22896
lowerneck -9.88968 -2.23018 -0.593552
upperneck 24.5951 -3.27411 0.993816
head 9.38855 -1.47517 0.0854712
rclavicle -1.82136e-014 -9.0447e-015
rhumerus -59.047 -11.5521 -81.7371
rradius 42.3504
rwrist 1.43887
rhand -12.6331 -34.2093
rfingers 7.12502
rthumb 13.4469 -63.7552
lclavicle -1.82136e-014 -9.0447e-015
lhumerus -48.5808 5.19552 89.5433
lradius 42.1332
lwrist 5.76365
lhand -12.582 -18.4718
lfingers 7.12502
lthumb 13.4961 11.0709
rfemur 0 0 0
rtibia 0
rfoot 0 0
rtoes 0
lfemur -0.296192 -2.19037 -11.6479
ltibia 25.034
lfoot -25.0857 12.1671
ltoes -54.5768
1052
root -0.634092 18.5783 6.22695 -3.52963 -2.35304 -4.10509
lowerback 6.96922 1.4879 3.7302
upperback -1.64893 2.38184 1.05926
thorax -5.52552 1.06998 -1.26528
lowerneck -9.86902 -2.25845 -0.570793
upperneck 24.5994 -3.31875 0.994193
head 9.38619 -1.49398 0.0771018
rclavicle -5.71506e-015 -1.6201e-014
rhumerus -59.0295 -11.6026 -81.7493
rradius 42.3521
rwrist 1.50098
rhand -12.6222 -34.2382
rfingers 7.12502
rthumb 13.4573 -63.7835
lclavicle -5.71506e-015 -1.6201e-014
lhumerus -48.5918 5.18245 89.5031
lradius 42.1654
lwrist 5.71007
lhand -12.5376 -18.4525
lfingers 7.12502
lthumb 13.5389 11.0874
rfemur 0 0 0
rtibia 0
rfoot 0 0
rtoes 0
lfemur -0.302237 -2.23074 -11.6405
ltibia 25.0227
lfoot -25.0509 12.1397
ltoes -54.5207
